<!--?xml version="1.0" encoding="utf-8"?-->
<!-- Generator: Adobe Illustrator 18.0.0, SVG Export Plug-In . SVG Version: 6.00 Build 0)  -->

<svg version="1.1" id="_x32_" xmlns="http://www.w3.org/2000/svg" xmlns:xlink="http://www.w3.org/1999/xlink" x="0px" y="0px" viewBox="0 0 512 512" style="width: 256px; height: 256px; opacity: 1;" xml:space="preserve">
<style type="text/css">
	.st0{fill:#4B4B4B;}
</style><style class="darkreader darkreader--sync" media="screen"></style>
<g>
	<path class="st0" d="M476.832,47.709h-60.238V17.498c0-10.926-2.593-17.25-15.856-17.25L366.763,0
		c-9.98,0-16.95,7.195-16.95,17.498v30.211l-60.422-0.008V17.498c0-11.933-5.233-17.49-16.471-17.49h-30.1
		c-11.333,0-20.209,9.088-20.209,20.691v27.01h-60.422v-27.01c0-12.183-7.597-20.691-18.476-20.691h-30.101
		c-10.889,0-18.204,8.315-18.204,20.691v27.01H35.17c-10.623,0-19.266,8.55-19.266,19.06v426.17c0,10.51,8.643,19.06,19.266,19.06
		h311.372l149.554-147.17V66.769C496.096,56.259,487.455,47.709,476.832,47.709z M51.401,82.689h43.998l-0.095,23.668
		c-0.008,2.164,0.833,4.206,2.366,5.745c1.534,1.539,3.572,2.388,5.736,2.388h51.49c4.022,0,7.292-3.271,7.292-7.292V82.689h60.422
		v23.804c0,4.41,3.587,7.997,7.996,7.997h49.99c4.521,0,8.795-4.098,8.795-8.43V82.681l60.422,0.008v23.804
		c0,4.41,3.587,7.997,7.997,7.997h50.684c4.466,0,8.1-3.634,8.1-8.102V82.689h44.522v283.028h-93.813c-13.973,0-23,8.132-23,20.722
		v91.858l-292.902-1.272V82.689z" style="fill: rgb(75, 75, 75); --darkreader-inline-fill: var(--darkreader-text-4b4b4b, #b9b3a9);" data-darkreader-inline-fill=""></path>
	<path class="st0" d="M131.731,210.41h248.539c9.359,0,16.974-7.845,16.974-17.49c0-9.644-7.614-17.49-16.974-17.49H131.731
		c-9.359,0-16.974,7.846-16.974,17.49C114.758,202.565,122.372,210.41,131.731,210.41z" style="fill: rgb(75, 75, 75); --darkreader-inline-fill: var(--darkreader-text-4b4b4b, #b9b3a9);" data-darkreader-inline-fill=""></path>
	<path class="st0" d="M131.731,305.551h248.539c9.359,0,16.974-7.847,16.974-17.492c0-9.642-7.614-17.488-16.974-17.488H131.731
		c-9.359,0-16.974,7.846-16.974,17.488C114.758,297.704,122.372,305.551,131.731,305.551z" style="fill: rgb(75, 75, 75); --darkreader-inline-fill: var(--darkreader-text-4b4b4b, #b9b3a9);" data-darkreader-inline-fill=""></path>
	<path class="st0" d="M277.865,365.709H128.479c-7.566,0-13.721,6.337-13.721,14.128v6.724c0,7.791,6.155,14.128,13.721,14.128
		h149.386c7.566,0,13.721-6.338,13.721-14.128v-6.724C291.586,372.046,285.431,365.709,277.865,365.709z" style="fill: rgb(75, 75, 75); --darkreader-inline-fill: var(--darkreader-text-4b4b4b, #b9b3a9);" data-darkreader-inline-fill=""></path>
</g>
</svg>
